# xmcd CD database file
#
# Track frame offsets:
#	150
#	31240
#	64185
#	110532
#	144382
#	180537
#	218942
#	251080
#
# Disc length: 3953 seconds
#
# Revision: 0
# Processed by: cddbd v1.5PL3 Copyright (c) Steve Scherf et al.
# Submitted via: CDex 1.51
#
DISCID=720f6f08
DTITLE=David Friesen and Clark Terry, Bud Shank - ...Three To Get Ready (live in Berlin)
DYEAR=1994
DGENRE=Jazz
TTITLE0=Should I
TTITLE1=Softly As In A Morning Sunrise
TTITLE2=Squeeze Me
TTITLE3=Noe Greater Love
TTITLE4=My Funny Valentine
TTITLE5=Have You Met Miss Jones
TTITLE6=I Hear A Rhapsody
TTITLE7=Payin Them Berlin Dues Blues
EXTD=YEAR: 1994
EXTT0=
EXTT1=
EXTT2=
EXTT3=
EXTT4=
EXTT5=
EXTT6=
EXTT7=
PLAYORDER=
